<svg xmlns="http://www.w3.org/2000/svg" width="200" height="80" viewBox="0 0 200 80">
    <g fill="none" fill-rule="evenodd">
        <path fill="#FFF" stroke="#17019B" stroke-width="2" d="M60 59h38V28.414L87.586 18H60v41z"/>
        <path fill="#FFF" d="M59 53h3v5h-3z"/>
        <path fill="#17019B" fill-rule="nonzero" d="M68.544 36.965h1.664v7.969h4.277v1.404h-5.941v-9.373zm10.203-.143c2.132 0 3.965 1.157 3.965 4.056v1.547c0 2.951-1.807 4.056-3.965 4.056s-3.965-1.105-3.965-4.056v-1.547c0-2.899 1.846-4.056 3.965-4.056zm0 8.138c1.274 0 2.288-.585 2.288-2.743v-1.131c0-2.158-1.014-2.743-2.288-2.743-1.248 0-2.288.585-2.288 2.743v1.131c0 2.158 1.04 2.743 2.288 2.743zm9.137-8.138c1.105 0 2.236.273 3.198 1.053l-.897 1.274c-.689-.611-1.521-.819-2.301-.819-1.443 0-2.496.533-2.496 2.912v.962c0 2.041 1.079 2.769 2.6 2.769a3.99 3.99 0 0 0 1.534-.273v-2.249h-1.963V41.06h3.614v4.563c-.832.559-2.145.858-3.263.858-2.379 0-4.186-1.144-4.186-3.939v-1.677c0-2.808 1.755-4.043 4.16-4.043z"/>
        <path fill="#17019B" d="M86 17h2v13h-2z"/>
        <path fill="#17019B" d="M86 28h12v2H86z"/>
        <g>
            <path fill="#FFF" stroke="#17019B" stroke-width="2" d="M81 64h38V33.414L108.586 23H81v41z"/>
            <path fill="#17019B" fill-rule="nonzero" d="M89.544 41.965h1.664v7.969h4.277v1.404h-5.941v-9.373zm10.203-.143c2.132 0 3.965 1.157 3.965 4.056v1.547c0 2.951-1.807 4.056-3.965 4.056s-3.965-1.105-3.965-4.056v-1.547c0-2.899 1.846-4.056 3.965-4.056zm0 8.138c1.274 0 2.288-.585 2.288-2.743v-1.131c0-2.158-1.014-2.743-2.288-2.743-1.248 0-2.288.585-2.288 2.743v1.131c0 2.158 1.04 2.743 2.288 2.743zm9.137-8.138c1.105 0 2.236.273 3.198 1.053l-.897 1.274c-.689-.611-1.521-.819-2.301-.819-1.443 0-2.496.533-2.496 2.912v.962c0 2.041 1.079 2.769 2.6 2.769a3.99 3.99 0 0 0 1.534-.273v-2.249h-1.963V46.06h3.614v4.563c-.832.559-2.145.858-3.263.858-2.379 0-4.186-1.144-4.186-3.939v-1.677c0-2.808 1.755-4.043 4.16-4.043z"/>
            <path fill="#17019B" d="M107 22h2v13h-2z"/>
            <path fill="#17019B" d="M107 33h12v2h-12z"/>
        </g>
        <g>
            <path fill="#FFF" stroke="#17019B" stroke-width="2" d="M102 59h38V28.414L129.586 18H102v41z"/>
            <path fill="#17019B" fill-rule="nonzero" d="M110.544 36.965h1.664v7.969h4.277v1.404h-5.941v-9.373zm10.203-.143c2.132 0 3.965 1.157 3.965 4.056v1.547c0 2.951-1.807 4.056-3.965 4.056s-3.965-1.105-3.965-4.056v-1.547c0-2.899 1.846-4.056 3.965-4.056zm0 8.138c1.274 0 2.288-.585 2.288-2.743v-1.131c0-2.158-1.014-2.743-2.288-2.743-1.248 0-2.288.585-2.288 2.743v1.131c0 2.158 1.04 2.743 2.288 2.743zm9.137-8.138c1.105 0 2.236.273 3.198 1.053l-.897 1.274c-.689-.611-1.521-.819-2.301-.819-1.443 0-2.496.533-2.496 2.912v.962c0 2.041 1.079 2.769 2.6 2.769a3.99 3.99 0 0 0 1.534-.273v-2.249h-1.963V41.06h3.614v4.563c-.832.559-2.145.858-3.263.858-2.379 0-4.186-1.144-4.186-3.939v-1.677c0-2.808 1.755-4.043 4.16-4.043z"/>
            <path fill="#17019B" d="M128 17h2v13h-2z"/>
            <path fill="#17019B" d="M128 28h12v2h-12z"/>
        </g>
    </g>
</svg>
