<svg xmlns="http://www.w3.org/2000/svg" xmlns:xlink="http://www.w3.org/1999/xlink" width="400" height="96" viewBox="0 0 400 96">
    <defs>
        <rect id="a" width="400" height="96" rx="1.589"/>
    </defs>
    <g fill="none" fill-rule="evenodd">
        <mask id="b" fill="#fff">
            <use xlink:href="#a"/>
        </mask>
        <use fill="#FFF" xlink:href="#a"/>
        <path fill="#000" fill-rule="nonzero" d="M155.308 16.05h2.51c2.14 0 3.13 1.1 3.13 3.09v1.03c0 1.99-.87 3.09-3.11 3.09h-2.53v-7.21zm1.27 1.08v5.05h1.07c1.29 0 2.01-.54 2.01-2.06v-.93c0-1.52-.68-2.06-2.01-2.06h-1.07zm8.456-1.08l2.71 7.21h-1.39l-.7-1.98h-2.43l-.71 1.98h-1.31l2.68-7.21h1.15zm-.95 2.69l-.49 1.47h1.69l-.49-1.47c-.17-.48-.26-.76-.36-1.11-.11.4-.17.6-.35 1.11zm4.496 4.52v-7.21h1.28v7.21h-1.28zm2.746-7.21h1.28v6.13h3.29v1.08h-4.57v-7.21zm10.066 0l-2.47 4.36v2.85h-1.28v-2.85l-2.47-4.36h1.43l1.71 3.18 1.68-3.18h1.4zm6.333 0l2.71 7.21h-1.39l-.7-1.98h-2.43l-.71 1.98h-1.31l2.68-7.21h1.15zm-.95 2.69l-.49 1.47h1.69l-.49-1.47c-.17-.48-.26-.76-.36-1.11-.11.4-.17.6-.35 1.11zm7.086-2.8c1.02 0 1.75.21 2.48.8l-.69.98c-.59-.5-1.14-.6-1.79-.6-.86 0-1.72.43-1.72 2.22v.74c0 1.53.81 2.1 1.71 2.1.67 0 1.41-.16 1.98-.75l.68.98c-.86.84-1.91.96-2.71.96-1.57 0-2.95-.88-2.95-3.03v-1.29c0-2.16 1.34-3.11 3.01-3.11zm2.966.11h5.51v1.08h-2.11v6.13h-1.28v-6.13h-2.12v-1.08zm6.266 7.21v-7.21h1.28v7.21h-1.28zm4.866 0l-2.65-7.21h1.37l1.89 5.64 1.96-5.64h1.3l-2.72 7.21h-1.15zm4.796-7.21h4.64v1.06h-3.37v1.94h3.16v1.04h-3.16v2.11h3.44v1.06h-4.71v-7.21zm10.943 6.16c1.05 0 1.52-.48 1.52-1.9v-4.26h1.28v4.24c0 2.36-.99 3.08-2.8 3.08-1.8 0-2.8-.72-2.8-3.08v-4.24h1.28v4.26c0 1.42.47 1.9 1.52 1.9zm6.466.01c.91 0 1.31-.37 1.31-.86v-.11c0-.58-.45-.83-1.27-1.01-1.2-.26-2.55-.47-2.55-2.14v-.13c0-.87.63-2.03 2.58-2.03.79 0 1.52.13 2.25.6l-.6.99c-.58-.38-1.05-.45-1.63-.45-.91 0-1.33.48-1.33.87v.12c0 .7.71.8 1.56.99 1.7.38 2.27 1.08 2.27 2.07v.13c0 1.61-1.25 2.11-2.65 2.11-1.04 0-2.02-.37-2.58-.83l.62-1.02c.44.37 1.16.7 2.02.7zm3.776-6.17h4.64v1.06h-3.37v1.94h3.16v1.04h-3.16v2.11h3.44v1.06h-4.71v-7.21zm9.886 7.21l-1.21-2.89h-1.47v2.89h-1.28v-7.21h2.73c1.5 0 2.33.83 2.33 1.98v.37c0 .75-.38 1.4-1.12 1.73.48 1.05.93 2.08 1.41 3.13h-1.39zm-1.39-6.14h-1.29v2.18h1.18c.99 0 1.33-.38 1.33-.93v-.3c0-.56-.34-.95-1.22-.95z" mask="url(#b)" opacity=".6"/>
        <path fill="#000" fill-rule="nonzero" d="M133.842 69.488l11.965-14.011c3.513-4.137 4.092-5.783 4.092-7.473v-.356c0-3.202-2.224-5.204-6.094-5.204-2.802 0-5.338 1.112-7.428 4.848l-2.491-1.556c1.512-2.758 4.492-6.139 9.83-6.139 5.693 0 9.34 3.203 9.34 8.007v.444c0 3.47-2.579 6.361-5.337 9.564l-9.963 11.698h16.457v2.846h-20.371v-2.668zm45.519-27.711l-1.468 2.535c-2.001-1.156-4.359-1.912-6.805-1.912-6.005 0-8.185 5.026-8.674 13.521.979-1.912 3.603-4.492 8.096-4.492 5.47 0 10.185 3.647 10.185 9.919v1.067c0 6.317-4.537 10.23-10.497 10.23-6.05 0-10.853-4.091-10.853-13.032v-1.067c0-13.789 4.493-18.949 11.787-18.949 2.891 0 5.827.845 8.229 2.18zm-16.635 19.437v.579c0 4.804 3.024 8.05 7.383 8.05 4.36 0 7.517-2.757 7.517-7.561v-.667c0-4.804-3.558-7.473-7.472-7.473-3.737 0-7.428 2.98-7.428 7.072zm21.767 17.57l1.868-10.008h3.914l-3.202 10.008h-2.58zm15.184-31.047v.534c0 3.47 2.447 6.271 6.272 6.271s6.271-2.802 6.271-6.271v-.534c0-3.291-2.49-5.382-6.271-5.382-3.825 0-6.272 2.09-6.272 5.382zm-.89 15.657v.534c0 3.291 2.714 5.916 7.162 5.916 4.492 0 7.161-2.625 7.161-5.916v-.534c0-3.78-2.936-6.316-7.161-6.316-4.137 0-7.161 2.446-7.161 6.316zm-3.158.623v-.756c0-3.514 2.402-6.45 5.872-7.518-3.07-1.423-4.848-4.092-4.848-7.428v-.711c0-4.582 3.914-8.007 9.296-8.007s9.296 3.425 9.296 8.007v.711c0 3.336-1.78 6.005-4.893 7.428 3.47 1.023 5.916 4.004 5.916 7.518v.756c0 5.115-4.137 8.629-10.32 8.629-6.182 0-10.319-3.514-10.319-8.63zm47.21-10.409v4.982c0 9.074-3.247 14.056-10.942 14.056-7.606 0-10.853-5.07-10.853-14.056v-4.982c0-8.984 3.38-14.01 10.853-14.01 7.562 0 10.942 5.026 10.942 14.01zm-3.202 5.027v-5.071c0-7.917-2.625-11.164-7.74-11.164-4.937 0-7.65 3.291-7.65 11.164v5.07c0 7.963 2.713 11.21 7.65 11.21 5.115 0 7.74-3.203 7.74-11.21zm8.779 11.831l1.29-2.624c2.001 1.156 4.359 1.957 6.894 1.957 6.583 0 8.407-5.07 8.674-13.388-.89 1.868-3.603 4.626-8.096 4.626-5.47 0-10.186-3.737-10.186-10.008V49.96c0-6.316 4.537-10.364 10.498-10.364 5.96 0 10.853 4.137 10.853 13.077v1.335c0 14.144-3.87 18.637-11.832 18.637-2.891 0-5.693-.8-8.095-2.18zm16.546-19.304v-.578c0-4.804-3.024-8.184-7.383-8.184-4.36 0-7.517 2.89-7.517 7.695v.667c0 4.804 3.558 7.561 7.472 7.561 3.736 0 7.428-3.069 7.428-7.161z" mask="url(#b)" opacity=".8"/>
    </g>
</svg>
