<svg xmlns="http://www.w3.org/2000/svg" width="172" height="29" viewBox="0 0 172 29">
    <g fill="#FFF" fill-rule="evenodd">
        <path fill-rule="nonzero" d="M87.407 18.657h1.503c.165 1.695 1.956 2.851 4.44 2.851 2.373 0 4.077-1.156 4.077-2.743 0-1.323-1.023-2.108-3.373-2.637l-1.968-.45c-2.933-.667-4.241-1.775-4.241-3.636 0-2.285 2.309-3.913 5.43-3.913 3.087 0 5.352 1.627 5.439 3.872H97.21c-.143-1.598-1.725-2.656-3.978-2.656-2.198 0-3.824 1.087-3.824 2.646 0 1.215.989 1.93 3.319 2.46l1.714.391c3.187.716 4.527 1.804 4.527 3.774 0 2.48-2.242 4.106-5.747 4.106-3.32.002-5.65-1.633-5.814-4.065zm30.4-3.411c0-4.323 2.816-7.118 7.184-7.118 3.362 0 5.947 1.752 6.544 4.421h-1.576c-.654-1.994-2.529-3.192-4.97-3.192-3.47 0-5.632 2.254-5.632 5.889 0 3.684 2.206 6.054 5.633 6.054 3.095 0 5.136-1.722 5.136-4.351v-.495h-4.965v-1.16h6.478v1.345c0 3.683-2.486 5.89-6.645 5.89-4.337 0-7.188-2.883-7.188-7.283zm-71.225 3.783h1.483c.066 1.352 1.242 2.293 2.88 2.293 1.933 0 3.043-1.049 3.043-2.94V8.129h1.494v10.273c0 2.596-1.692 4.165-4.538 4.165-2.538 0-4.34-1.46-4.362-3.538zm119.144 3.244V9.346h-4.504V8.13h10.524v1.217h-4.514v12.927h-1.506zm-14.704 0v-6.635h-9.032v6.635h-1.495V8.129h1.495v6.294h9.032V8.129h1.503v14.144h-1.503zm-43.224-.144v-14h1.504v14h-1.504zm-30.43.144V9.879l-5.112 5.45-.62.581v.019l-.627-.6-5.112-5.451v12.393h-1.406V8.129h1.725l5.416 5.961 5.418-5.961h1.724v14.143h-1.406z"/>
        <path d="M22.705 1.706L19.34 5.118l9.25 9.382-9.25 9.382 3.364 3.412L35.318 14.5 22.705 1.706zm0-1.706L37 14.5 22.705 29 18.5 24.735 14.295 29 0 14.5 14.295 0 18.5 4.265 22.705 0zm-8.41 27.294L26.91 14.5 14.295 1.706 1.682 14.5l12.613 12.794zM10.091 14.5l5.045 5.118-.84.853L8.408 14.5l5.886-5.97.841.852-5.045 5.118zm7.568-2.559l2.523 2.559-2.523 2.559-2.523-2.559 2.523-2.559z"/>
    </g>
</svg>
