<?xml version="1.0" encoding="UTF-8"?>
<svg width="160px" height="160px" viewBox="0 0 160 160" version="1.1" xmlns="http://www.w3.org/2000/svg" xmlns:xlink="http://www.w3.org/1999/xlink">
    <!-- Generator: Sketch 54.1 (76490) - https://sketchapp.com -->
    <title>img_simple01</title>
    <desc>Created with Sketch.</desc>
    <defs>
        <polygon id="path-1" points="9 8 61 8 61 14.6666667 61 48 9 48"></polygon>
        <polyline id="path-2" points="70 56 18 56 18 16 70 16 70 22.6666667 70 49.6336336"></polyline>
        <circle id="path-3" cx="13" cy="13" r="13"></circle>
    </defs>
    <g id="Page-1" stroke="none" stroke-width="1" fill="none" fill-rule="evenodd">
        <g id="guide_web" transform="translate(-660.000000, -4444.000000)">
            <g id="img_simple02" transform="translate(660.000000, 4444.000000)">
                <g id="Group-23" transform="translate(25.000000, 49.000000)">
                    <path d="M6,4 L4,4 L6,4 L6,2 L4,2 L4,4 L6,4 Z M11,4 L9,4 L11,4 L11,2 L9,2 L9,4 L11,4 Z M16,4 L14,4 L16,4 L16,2 L14,2 L14,4 L16,4 Z M21,4 L19,4 L21,4 L21,2 L19,2 L19,4 L21,4 Z M26,4 L24,4 L26,4 L26,2 L24,2 L24,4 L26,4 Z M31,4 L29,4 L31,4 L31,2 L29,2 L29,4 L31,4 Z M36,4 L34,4 L36,4 L36,2 L34,2 L34,4 L36,4 Z M41,4 L39,4 L41,4 L41,2 L39,2 L39,4 L41,4 Z M44,4 L44,2 L46,2 L46,4 L44,4 L46,4 L44,4 Z M49,4 L49,2 L51,2 L51,4 L49,4 L51,4 L49,4 Z M56,4 L54,4 L56,4 L56,2 L54,2 L54,4 L56,4 Z M61,4 L59,4 L61,4 L61,2 L59,2 L59,4 L61,4 Z M66,4 L64,4 L66,4 L66,2 L64,2 L64,4 L66,4 Z M71,4 L69,4 L71,4 L71,2 L69,2 L69,4 L71,4 Z M76,4 L74,4 L76,4 L76,2 L74,2 L74,4 L76,4 Z M80,4 L82,4 L82,2 L80,2 L80,4 Z M80,10 L80,8 L80,10 L82,10 L82,8 L80,8 L80,10 Z M80,15 L82,15 L82,13 L80,13 L80,15 Z M80,20 L80,18 L80,20 L82,20 L82,18 L80,18 L80,20 Z M80,25 L80,23 L80,25 L82,25 L82,23 L80,23 L80,25 Z M80,30 L80,28 L80,30 L82,30 L82,28 L80,28 L80,30 Z M80,35 L80,33 L80,35 L82,35 L82,33 L80,33 L80,35 Z M80,40 L80,38 L80,40 L82,40 L82,38 L80,38 L80,40 Z M80,45 L80,43 L80,45 L82,45 L82,43 L80,43 L80,45 Z M80,50 L80,48 L80,50 L82,50 L82,48 L80,48 L80,50 Z M80,55 L80,53 L80,55 L82,55 L82,53 L80,53 L80,55 Z M80,60 L80,58 L80,60 L82,60 L82,58 L80,58 L80,60 Z M80,65 L80,63 L80,65 L82,65 L82,63 L80,63 L80,65 Z M80,68 L80,70 L78,70 L79,70 L79,72 L80,72 L82,72 L82,70 L82,68 L80,68 Z M75,70 L77,70 L75,70 L75,72 L77,72 L77,70 L75,70 Z M70,70 L72,70 L70,70 L70,72 L72,72 L72,70 L70,70 Z M65,70 L67,70 L65,70 L65,72 L67,72 L67,70 L65,70 Z M60,70 L62,70 L60,70 L60,72 L62,72 L62,70 L60,70 Z M55,70 L57,70 L55,70 L55,72 L57,72 L57,70 L55,70 Z M50,70 L52,70 L50,70 L50,72 L52,72 L52,70 L50,70 Z M45,70 L47,70 L45,70 L45,72 L47,72 L47,70 L45,70 Z M40,70 L42,70 L40,70 L40,72 L42,72 L42,70 L40,70 Z M35,70 L37,70 L35,70 L35,72 L37,72 L37,70 L35,70 Z M30,70 L32,70 L30,70 L30,72 L32,72 L32,70 L30,70 Z M25,70 L27,70 L25,70 L25,72 L27,72 L27,70 L25,70 Z M20,70 L22,70 L20,70 L20,72 L22,72 L22,70 L20,70 Z M15,70 L17,70 L15,70 L15,72 L17,72 L17,70 L15,70 Z M10,70 L12,70 L10,70 L10,72 L12,72 L12,70 L10,70 Z M5,70 L7,70 L5,70 L5,72 L7,72 L7,70 L5,70 Z M4,66 L4,68 L4,66 L2,66 L2,68 L4,68 L4,66 Z M4,61 L4,63 L4,61 L2,61 L2,63 L4,63 L4,61 Z M4,56 L4,58 L4,56 L2,56 L2,58 L4,58 L4,56 Z M4,51 L4,53 L4,51 L2,51 L2,53 L4,53 L4,51 Z M4,46 L4,48 L4,46 L2,46 L2,48 L4,48 L4,46 Z M4,41 L4,43 L4,41 L2,41 L2,43 L4,43 L4,41 Z M4,36 L4,38 L4,36 L2,36 L2,38 L4,38 L4,36 Z M4,33 L2,33 L2,31 L4,31 L4,33 L4,31 L4,33 Z M4,26 L4,28 L4,26 L2,26 L2,28 L4,28 L4,26 Z M4,21 L4,23 L4,21 L2,21 L2,23 L4,23 L4,21 Z M4,18 L2,18 L2,16 L4,16 L4,18 L4,16 L4,18 Z M4,11 L4,13 L4,11 L2,11 L2,13 L4,13 L4,11 Z M4,8 L4,6 L4,8 L2,8 L2,6 L4,6 L4,8 Z" id="Rectangle" fill="#4F32EF" fill-rule="nonzero"></path>
                    <polygon id="Rectangle" stroke="#4F32EF" stroke-width="2" fill="#FFFFFF" points="0 0 52 0 52 6.66666667 52 40 0 40"></polygon>
                    <g id="Rectangle">
                        <use fill="#FFFFFF" fill-rule="evenodd" xlink:href="#path-1"></use>
                        <path stroke="#FFFFFF" stroke-width="3" d="M7.5,6.5 L62.5,6.5 L62.5,49.5 L7.5,49.5 L7.5,6.5 Z"></path>
                        <use stroke="#4F32EF" stroke-width="2" xlink:href="#path-1"></use>
                    </g>
                    <g id="Path">
                        <use fill="#FFFFFF" fill-rule="evenodd" xlink:href="#path-2"></use>
                        <path stroke="#FFFFFF" stroke-width="3" d="M71.5,57.5 L16.5,57.5 L16.5,14.5 L71.5,14.5 L71.5,57.5 Z"></path>
                        <use stroke="#4F32EF" stroke-width="2" xlink:href="#path-2"></use>
                    </g>
                    <path d="M35.5,32 C31.3578644,32 28,35.3578644 28,39.5 C28,43.6421356 31.3578644,47 35.5,47 C39.6421356,47 43,43.6421356 43,39.5 L35.5,39.5 L35.5,32 Z" id="Path" fill="#4F32EF"></path>
                    <rect id="Rectangle" fill="#4F32EF" x="49" y="34" width="12" height="2"></rect>
                    <rect id="Rectangle-Copy-26" fill="#4F32EF" x="49" y="39" width="12" height="2"></rect>
                    <rect id="Rectangle-Copy-26" fill="#4F32EF" x="49" y="44" width="12" height="2"></rect>
                    <rect id="Rectangle" stroke="#4F32EF" stroke-width="2" fill="#FFFFFF" x="18" y="16" width="52" height="8"></rect>
                    <g id="Group-21" transform="translate(61.000000, 48.000000)">
                        <g id="Oval">
                            <use fill="#FFFFFF" fill-rule="evenodd" xlink:href="#path-3"></use>
                            <circle stroke="#FFFFFF" stroke-width="3" cx="13" cy="13" r="14.5"></circle>
                            <use stroke="#4F32EF" stroke-width="2" xlink:href="#path-3"></use>
                        </g>
                        <g id="Group-20" transform="translate(13.000000, 13.000000) rotate(-315.000000) translate(-13.000000, -13.000000) translate(8.000000, 8.000000)" fill="#4F32EF">
                            <rect id="Rectangle" x="0" y="4" width="10" height="2"></rect>
                            <rect id="Rectangle" transform="translate(5.000000, 5.000000) rotate(-270.000000) translate(-5.000000, -5.000000) " x="0" y="4" width="10" height="2"></rect>
                        </g>
                    </g>
                </g>
            </g>
        </g>
    </g>
</svg>