<svg xmlns="http://www.w3.org/2000/svg" xmlns:xlink="http://www.w3.org/1999/xlink" width="300" height="145" viewBox="0 0 300 145">
    <defs>
        <circle id="b" cx="17.875" cy="7.813" r="7"/>
        <filter id="a" width="135.7%" height="135.7%" x="-17.9%" y="-10.7%" filterUnits="objectBoundingBox">
            <feMorphology in="SourceAlpha" operator="dilate" radius=".5" result="shadowSpreadOuter1"/>
            <feOffset dy="1" in="shadowSpreadOuter1" result="shadowOffsetOuter1"/>
            <feGaussianBlur in="shadowOffsetOuter1" result="shadowBlurOuter1" stdDeviation=".5"/>
            <feComposite in="shadowBlurOuter1" in2="SourceAlpha" operator="out" result="shadowBlurOuter1"/>
            <feColorMatrix in="shadowBlurOuter1" result="shadowMatrixOuter1" values="0 0 0 0 0 0 0 0 0 0 0 0 0 0 0 0 0 0 0.05 0"/>
            <feMorphology in="SourceAlpha" operator="dilate" radius=".5" result="shadowSpreadOuter2"/>
            <feOffset dy="1" in="shadowSpreadOuter2" result="shadowOffsetOuter2"/>
            <feGaussianBlur in="shadowOffsetOuter2" result="shadowBlurOuter2" stdDeviation=".5"/>
            <feComposite in="shadowBlurOuter2" in2="SourceAlpha" operator="out" result="shadowBlurOuter2"/>
            <feColorMatrix in="shadowBlurOuter2" result="shadowMatrixOuter2" values="0 0 0 0 0 0 0 0 0 0 0 0 0 0 0 0 0 0 0.1 0"/>
            <feMorphology in="SourceAlpha" operator="dilate" radius=".5" result="shadowSpreadOuter3"/>
            <feOffset dy="1" in="shadowSpreadOuter3" result="shadowOffsetOuter3"/>
            <feGaussianBlur in="shadowOffsetOuter3" result="shadowBlurOuter3" stdDeviation=".5"/>
            <feComposite in="shadowBlurOuter3" in2="SourceAlpha" operator="out" result="shadowBlurOuter3"/>
            <feColorMatrix in="shadowBlurOuter3" result="shadowMatrixOuter3" values="0 0 0 0 0 0 0 0 0 0 0 0 0 0 0 0 0 0 0.0510643116 0"/>
            <feMerge>
                <feMergeNode in="shadowMatrixOuter1"/>
                <feMergeNode in="shadowMatrixOuter2"/>
                <feMergeNode in="shadowMatrixOuter3"/>
            </feMerge>
        </filter>
    </defs>
    <g fill="none" fill-rule="evenodd">
        <path fill="#000" d="M0 25.625h300v1H0zM0 52.5h300v1H0zM0 79.375h300v1H0z" opacity=".07"/>
        <path fill="#999" fill-rule="nonzero" d="M42.3 3.563l3.363 9.012h-1.3l-.95-2.65h-3.45l-.95 2.65H37.75l3.35-9.012h1.2zM41.1 6.75l-.763 2.113h2.7l-.75-2.113a25.68 25.68 0 0 1-.6-1.813c-.25.838-.325 1.063-.587 1.813zm5.788-3.625H48.1v9.45h-1.212v-9.45zm3.162 0h1.213v9.45H50.05v-9.45zm5.863 2.487c1.875 0 3.05 1.138 3.05 3.113v.838c0 1.974-1.175 3.112-3.05 3.112-1.875 0-3.05-1.138-3.05-3.113v-.837c0-1.987 1.175-3.112 3.05-3.112zm0 6c1.087 0 1.825-.7 1.825-2.15v-.637c0-1.45-.738-2.15-1.825-2.15-1.088 0-1.825.7-1.825 2.15v.638c0 1.45.737 2.15 1.825 2.15zm8.475-4.362h-.026l-1.374 5.325h-1.425l-1.776-6.837h1.276l1.25 5.574h.024l1.45-5.574h1.226l1.437 5.574h.025l1.275-5.574h1.2l-1.75 6.837h-1.425L64.387 7.25zM73.3 3.562h1.425l3.5 6.075c.175.3.425.775.638 1.313V3.563h1.15v9.012h-1.425l-3.5-6.05A11.134 11.134 0 0 1 74.45 5.2v7.375H73.3V3.563zm11.413 2.05c1.875 0 3.05 1.138 3.05 3.113v.838c0 1.974-1.175 3.112-3.05 3.112-1.875 0-3.05-1.138-3.05-3.113v-.837c0-1.987 1.175-3.112 3.05-3.112zm0 6c1.087 0 1.825-.7 1.825-2.15v-.637c0-1.45-.738-2.15-1.825-2.15-1.088 0-1.825.7-1.825 2.15v.638c0 1.45.737 2.15 1.825 2.15zm5.075-.95V6.775h-1.126V5.737h1.125V4.013H91v1.724h1.8v1.038H91v3.887c0 .838.362.975.875.975.3 0 .588-.05.9-.162l.188.975c-.275.113-.788.225-1.275.225-1.3 0-1.9-.638-1.9-2.013zm4.475-4.925h1.212v6.838h-1.212V5.738zm-.038-2.45h1.288v1.325h-1.288V3.287zm3.713 9.288v-5.8h-1.126V5.737h1.126v-.675c0-1.375.687-2.012 1.987-2.012.438 0 .95.075 1.225.175l-.188.988a3.43 3.43 0 0 0-.925-.125c-.462 0-.887.137-.887 1.024v.625h1.8v1.038h-1.8v5.8h-1.213zm4.387-6.837h1.212v6.837h-1.212V5.738zm-.038-2.45h1.288v1.325h-1.288V3.286zm5.838 2.325c1.125 0 1.8.324 2.362.75l-.575.912c-.637-.463-1.125-.588-1.787-.588-.9 0-1.725.588-1.725 1.988v.862c0 1.475.85 2.05 1.75 2.05s1.438-.262 1.925-.624l.587.925c-.475.4-1.275.787-2.525.787-1.887 0-2.962-1.163-2.962-3.125v-.863c0-1.962 1.163-3.074 2.95-3.074zm5.662 7.062c-1.375 0-2.25-.725-2.25-1.925v-.338c0-1.162.738-1.975 2.488-1.975h1.737v-.4c0-.912-.412-1.35-1.412-1.35-.8 0-1.325.276-1.962.688l-.6-.9c.662-.462 1.475-.862 2.575-.862 1.525 0 2.6.8 2.6 2.174v4.788H115.8v-.825h-.013c-.125.25-.375.463-.637.613-.363.2-.763.312-1.363.312zm1.975-2.538v-.675h-1.712c-.95 0-1.325.388-1.325 1.038v.175c0 .662.538.95 1.188.95.6 0 1.025-.137 1.387-.425.325-.25.463-.55.463-1.063zm3.45.525V6.775h-1.124V5.737h1.125V4.013h1.212v1.724h1.8v1.038h-1.8v3.887c0 .838.362.975.875.975.3 0 .588-.05.9-.162l.188.975c-.276.113-.788.225-1.276.225-1.3 0-1.9-.638-1.9-2.013zm4.475-4.925h1.213v6.838h-1.213V5.738zm-.037-2.45h1.287v1.325h-1.287V3.287zm5.938 2.325c1.875 0 3.05 1.138 3.05 3.113v.838c0 1.974-1.175 3.112-3.05 3.112-1.875 0-3.05-1.138-3.05-3.113v-.837c0-1.987 1.175-3.112 3.05-3.112zm0 6c1.087 0 1.825-.7 1.825-2.15v-.637c0-1.45-.738-2.15-1.826-2.15-1.087 0-1.824.7-1.824 2.15v.638c0 1.45.737 2.15 1.825 2.15zm10.287-3.562v4.525h-1.213v-4.25c0-1.15-.475-1.637-1.487-1.637-.825 0-1.725.575-1.725 1.65v4.237h-1.212V5.738h1.174V6.6h.013c.412-.637 1.112-.987 2.05-.987 1.325 0 2.4.787 2.4 2.437zM39.31 39.75v3.01h-.99v-7.21h2.61c1.47 0 2.3.83 2.3 1.97v.26c0 .81-.44 1.47-1.21 1.78l1.43 3.2h-1.07l-1.3-3.01h-1.77zm0-3.35v2.51h1.38c1.12 0 1.55-.45 1.55-1.16v-.2c0-.7-.45-1.15-1.45-1.15h-1.48zm7.49 1.62c-.81 0-1.39.58-1.39 1.42v.14h2.74v-.18c0-.84-.52-1.38-1.35-1.38zm1.75 3.49l.41.73c-.48.33-1.12.6-2.11.6-1.35 0-2.4-.75-2.4-2.52v-.62c0-1.66 1-2.51 2.35-2.51 1.4 0 2.29.89 2.29 2.45v.73h-3.68v.04c0 1.03.61 1.59 1.48 1.59.71 0 1.19-.19 1.66-.49zm9.31-2.34v3.59h-.97v-3.28c0-.95-.34-1.41-1.03-1.41-.61 0-1.27.39-1.27 1.28v3.41h-.97v-3.28c0-.95-.34-1.41-1.03-1.41-.6 0-1.27.37-1.27 1.23v3.46h-.97v-5.47h.96v.74h.01c.21-.48.7-.84 1.46-.84.73 0 1.29.33 1.57.91.35-.53.84-.91 1.7-.91 1.12 0 1.81.72 1.81 1.98zm1.51-1.88h.97v5.47h-.97v-5.47zm-.03-1.96h1.03v1.06h-1.03v-1.06zm7.1 3.81v3.62h-.97v-3.4c0-.92-.38-1.31-1.19-1.31-.66 0-1.38.46-1.38 1.32v3.39h-.97v-5.47h.94v.69h.01c.33-.51.89-.79 1.64-.79 1.06 0 1.92.63 1.92 1.95zm4.95 2.94h-.02c-.3.55-.91.76-1.59.76-1.38 0-2.13-.85-2.13-2.33v-.97c0-1.48.89-2.35 2.17-2.35.83 0 1.31.35 1.53.67V35.2h.97v7.56h-.93v-.68zm-.03-1.47V39.2c0-.57-.6-1.16-1.44-1.16-.82 0-1.31.61-1.31 1.64v.67c0 1.04.5 1.64 1.31 1.64.79 0 1.44-.53 1.44-1.38zM41.33 68.435l-1.7-4c-.12-.3-.21-.51-.37-1v6.2h-.94v-7.21h1.46l2 4.72 1.95-4.72h1.45v7.21h-.95v-6.2c-.14.52-.21.7-.34 1l-1.72 4h-.84zm5.37-.65v-3.62h.97v3.4c0 .92.36 1.31 1.17 1.31.66 0 1.36-.46 1.36-1.32v-3.39h.97v5.47h-.94v-.69h-.01c-.33.51-.87.79-1.62.79-1.06 0-1.9-.63-1.9-1.95zm6.37.32v-3.11h-.9v-.83h.9v-1.38h.97v1.38h1.44v.83h-1.44v3.11c0 .67.29.78.7.78.24 0 .47-.04.72-.13l.15.78c-.22.09-.63.18-1.02.18-1.04 0-1.52-.51-1.52-1.61zm5.62-3.21c-.81 0-1.39.58-1.39 1.42v.14h2.74v-.18c0-.84-.52-1.38-1.35-1.38zm1.75 3.49l.41.73c-.48.33-1.12.6-2.11.6-1.35 0-2.4-.75-2.4-2.52v-.62c0-1.66 1-2.51 2.35-2.51 1.4 0 2.29.89 2.29 2.45v.73H57.3v.04c0 1.03.61 1.59 1.48 1.59.71 0 1.19-.19 1.66-.49z"/>
        <path fill="#000" d="M0 106.25h300v1H0z" opacity=".07"/>
        <path fill="#999" fill-rule="nonzero" d="M38.32 96.51V89.3h2.58c1.63 0 2.39.88 2.39 2.06v.21c0 1.17-.82 2.13-2.39 2.13h-1.59v2.81h-.99zm2.52-6.35h-1.53v2.68h1.42c1.04 0 1.56-.42 1.56-1.29v-.18c0-.82-.52-1.21-1.45-1.21zm5.68 1.61c-.81 0-1.39.58-1.39 1.42v.14h2.74v-.18c0-.84-.52-1.38-1.35-1.38zm1.75 3.49l.41.73c-.48.33-1.12.6-2.11.6-1.35 0-2.4-.75-2.4-2.52v-.62c0-1.66 1-2.51 2.35-2.51 1.4 0 2.29.89 2.29 2.45v.73h-3.68v.04c0 1.03.61 1.59 1.48 1.59.71 0 1.19-.19 1.66-.49zm6.31-2.37v3.62h-.97v-3.4c0-.92-.38-1.31-1.19-1.31-.66 0-1.38.46-1.38 1.32v3.39h-.97v-5.47h.94v.69h.01c.33-.51.89-.79 1.64-.79 1.06 0 1.92.63 1.92 1.95zm4.95 2.94h-.02c-.3.55-.91.76-1.59.76-1.38 0-2.13-.85-2.13-2.33v-.97c0-1.48.89-2.35 2.17-2.35.83 0 1.31.35 1.53.67v-2.66h.97v7.56h-.93v-.68zm-.03-1.47v-1.41c0-.57-.6-1.16-1.44-1.16-.82 0-1.31.61-1.31 1.64v.67c0 1.04.5 1.64 1.31 1.64.79 0 1.44-.53 1.44-1.38zm2.55-3.32h.97v5.47h-.97v-5.47zm-.03-1.96h1.03v1.06h-1.03v-1.06zm7.1 3.81v3.62h-.97v-3.4c0-.92-.38-1.31-1.19-1.31-.66 0-1.38.46-1.38 1.32v3.39h-.97v-5.47h.94v.69h.01c.33-.51.89-.79 1.64-.79 1.06 0 1.92.63 1.92 1.95zM75 91.04v5.4c0 1.53-.83 2.3-2.44 2.3-.74 0-1.37-.23-1.82-.58l.44-.76c.36.27.87.46 1.41.46.94 0 1.44-.45 1.44-1.42v-.67c-.31.52-.91.72-1.57.72-1.38 0-2.13-.85-2.13-2.33v-.87c0-1.48.89-2.35 2.17-2.35.83 0 1.31.35 1.53.67v-.57H75zm-.96 3.22v-1.31c0-.57-.6-1.16-1.44-1.16-.82 0-1.31.61-1.31 1.64V94c0 1.04.5 1.64 1.31 1.64.79 0 1.44-.53 1.44-1.38zM80 91.04v.68c.32-.56.95-.78 1.6-.78 1.38 0 2.13.89 2.13 2.33v.97c0 1.51-.88 2.35-2.19 2.35-.81 0-1.29-.36-1.51-.68v2.74h-.97v-7.61H80zm.02 2.14v1.38c0 .57.6 1.18 1.44 1.18.82 0 1.31-.61 1.31-1.64v-.67c0-1.04-.5-1.64-1.31-1.64-.79 0-1.44.54-1.44 1.39zm7.07-1.41c-.81 0-1.39.58-1.39 1.42v.14h2.74v-.18c0-.84-.52-1.38-1.35-1.38zm1.75 3.49l.41.73c-.48.33-1.12.6-2.11.6-1.35 0-2.4-.75-2.4-2.52v-.62c0-1.66 1-2.51 2.35-2.51 1.4 0 2.29.89 2.29 2.45v.73H85.7v.04c0 1.03.61 1.59 1.48 1.59.71 0 1.19-.19 1.66-.49zm5.07-4.21l-.29.94c-.19-.08-.41-.13-.67-.13-.72 0-1.34.6-1.34 1.46v3.19h-.97v-5.47h.94v.87h.01c.32-.61.81-.97 1.61-.97.25 0 .49.04.71.11zm.93-.01h.97v5.47h-.97v-5.47zm-.03-1.96h1.03v1.06h-1.03v-1.06zm4.75 1.86c1.5 0 2.44.91 2.44 2.49v.67c0 1.58-.94 2.49-2.44 2.49s-2.44-.91-2.44-2.49v-.67c0-1.59.94-2.49 2.44-2.49zm0 4.8c.87 0 1.46-.56 1.46-1.72v-.51c0-1.16-.59-1.72-1.46-1.72s-1.46.56-1.46 1.72v.51c0 1.16.59 1.72 1.46 1.72zm7.19.09h-.02c-.3.55-.91.76-1.59.76-1.38 0-2.13-.85-2.13-2.33v-.97c0-1.48.89-2.35 2.17-2.35.83 0 1.31.35 1.53.67v-2.66h.97v7.56h-.93v-.68zm-.03-1.47v-1.41c0-.57-.6-1.16-1.44-1.16-.82 0-1.31.61-1.31 1.64v.67c0 1.04.5 1.64 1.31 1.64.79 0 1.44-.53 1.44-1.38zM38.8 119.425v-1.15h1.14v1.15H38.8zm2.68 0v-1.15h1.14v1.15h-1.14zm2.68 0v-1.15h1.14v1.15h-1.14z"/>
        <path fill="#4F32EF" fill-rule="nonzero" d="M177.778 96.51h-.99v-6.05l-1.69 1-.47-.8 2.32-1.36h.83v7.21zm2.377-.4l.38-.84c.45.26.98.44 1.55.44 1 0 1.69-.58 1.73-2.46-.24.42-.92.82-1.72.82-1.28 0-2.27-.89-2.27-2.3v-.22c0-1.38.99-2.36 2.46-2.36 1.6 0 2.51 1 2.51 2.93v.37c0 3.16-.98 4.13-2.77 4.13-.65 0-1.33-.18-1.87-.51zm3.63-4.34v-.14c0-.93-.56-1.54-1.46-1.54-.93 0-1.51.55-1.51 1.49v.13c0 .96.63 1.48 1.48 1.48.88 0 1.49-.63 1.49-1.42zm2.218 5.15v-1.15h1.14v1.15h-1.14zm7.327-4.58v1.12c0 2.04-.82 3.16-2.55 3.16-1.71 0-2.55-1.14-2.55-3.16v-1.12c0-2.02.87-3.15 2.55-3.15 1.7 0 2.55 1.13 2.55 3.15zm-1.01 1.13v-1.14c0-1.76-.66-2.22-1.54-2.22-.84 0-1.54.47-1.54 2.22v1.14c0 1.77.7 2.23 1.54 2.23.88 0 1.54-.45 1.54-2.23zm5.448 3.04h-.99v-6.05l-1.69 1-.47-.8 2.32-1.36h.83v7.21zm2.437.41v-1.15h1.14v1.15h-1.14zm7.327-4.58v1.12c0 2.04-.82 3.16-2.55 3.16-1.71 0-2.55-1.14-2.55-3.16v-1.12c0-2.02.87-3.15 2.55-3.15 1.7 0 2.55 1.13 2.55 3.15zm-1.01 1.13v-1.14c0-1.76-.66-2.22-1.54-2.22-.84 0-1.54.47-1.54 2.22v1.14c0 1.77.7 2.23 1.54 2.23.88 0 1.54-.45 1.54-2.23zm5.448 3.04h-.99v-6.05l-1.69 1-.47-.8 2.32-1.36h.83v7.21zm4.185-3.18v-.84h3.26v.84h-3.26zm9.865 3.18h-.99v-6.05l-1.69 1-.47-.8 2.32-1.36h.83v7.21zm2.377-.4l.38-.84c.45.26.98.44 1.55.44 1 0 1.69-.58 1.73-2.46-.24.42-.92.82-1.72.82-1.28 0-2.27-.89-2.27-2.3v-.22c0-1.38.99-2.36 2.46-2.36 1.6 0 2.51 1 2.51 2.93v.37c0 3.16-.98 4.13-2.77 4.13-.65 0-1.33-.18-1.87-.51zm3.63-4.34v-.14c0-.93-.56-1.54-1.46-1.54-.93 0-1.51.55-1.51 1.49v.13c0 .96.63 1.48 1.48 1.48.88 0 1.49-.63 1.49-1.42zm2.218 5.15v-1.15h1.14v1.15h-1.14zm7.327-4.58v1.12c0 2.04-.82 3.16-2.55 3.16-1.71 0-2.55-1.14-2.55-3.16v-1.12c0-2.02.87-3.15 2.55-3.15 1.7 0 2.55 1.13 2.55 3.15zm-1.01 1.13v-1.14c0-1.76-.66-2.22-1.54-2.22-.84 0-1.54.47-1.54 2.22v1.14c0 1.77.7 2.23 1.54 2.23.88 0 1.54-.45 1.54-2.23zm1.838 2.21l2.69-2.92c.82-.9.9-1.3.9-1.68V91c0-.57-.49-.92-1.24-.92-.53 0-1.1.21-1.57 1.05l-.76-.49c.34-.62.98-1.45 2.31-1.45 1.46 0 2.25.76 2.25 1.81v.1c0 .78-.46 1.46-1.11 2.15l-2.25 2.4h3.62v.86h-4.84v-.83zm6.047 1.24v-1.15h1.14v1.15h-1.14zm7.328-4.58v1.12c0 2.04-.82 3.16-2.55 3.16-1.71 0-2.55-1.14-2.55-3.16v-1.12c0-2.02.87-3.15 2.55-3.15 1.7 0 2.55 1.13 2.55 3.15zm-1.01 1.13v-1.14c0-1.76-.66-2.22-1.54-2.22-.84 0-1.54.47-1.54 2.22v1.14c0 1.77.7 2.23 1.54 2.23.88 0 1.54-.45 1.54-2.23zm5.447 3.04h-.99v-6.05l-1.69 1-.47-.8 2.32-1.36h.83v7.21zM205.91 65.465v1.12c0 2.04-.82 3.16-2.55 3.16-1.71 0-2.55-1.14-2.55-3.16v-1.12c0-2.02.87-3.15 2.55-3.15 1.7 0 2.55 1.13 2.55 3.15zm-1.01 1.13v-1.14c0-1.76-.66-2.22-1.54-2.22-.84 0-1.54.47-1.54 2.22v1.14c0 1.77.7 2.23 1.54 2.23.88 0 1.54-.45 1.54-2.23zm6.757-3.41l-2.85 6.45h-1.08l2.86-6.35h-3.92v-.86h4.99v.76zm1.427 6.06v-1.15h1.14v1.15h-1.14zm0-4.46v-1.15h1.14v1.15h-1.14zm7.628.68v1.12c0 2.04-.82 3.16-2.55 3.16-1.71 0-2.55-1.14-2.55-3.16v-1.12c0-2.02.87-3.15 2.55-3.15 1.7 0 2.55 1.13 2.55 3.15zm-1.01 1.13v-1.14c0-1.76-.66-2.22-1.54-2.22-.84 0-1.54.47-1.54 2.22v1.14c0 1.77.7 2.23 1.54 2.23.88 0 1.54-.45 1.54-2.23zm6.797-1.13v1.12c0 2.04-.82 3.16-2.55 3.16-1.71 0-2.55-1.14-2.55-3.16v-1.12c0-2.02.87-3.15 2.55-3.15 1.7 0 2.55 1.13 2.55 3.15zm-1.01 1.13v-1.14c0-1.76-.66-2.22-1.54-2.22-.84 0-1.54.47-1.54 2.22v1.14c0 1.77.7 2.23 1.54 2.23.88 0 1.54-.45 1.54-2.23zm3.845-.14v-.84h3.26v.84h-3.26zm11.215-.99v1.12c0 2.04-.82 3.16-2.55 3.16-1.71 0-2.55-1.14-2.55-3.16v-1.12c0-2.02.87-3.15 2.55-3.15 1.7 0 2.55 1.13 2.55 3.15zm-1.01 1.13v-1.14c0-1.76-.66-2.22-1.54-2.22-.84 0-1.54.47-1.54 2.22v1.14c0 1.77.7 2.23 1.54 2.23.88 0 1.54-.45 1.54-2.23zm2.038 2.64l.38-.84c.45.26.98.44 1.55.44 1 0 1.69-.58 1.73-2.46-.24.42-.92.82-1.72.82-1.28 0-2.27-.89-2.27-2.3v-.22c0-1.38.99-2.36 2.46-2.36 1.6 0 2.51 1 2.51 2.93v.37c0 3.16-.98 4.13-2.77 4.13-.65 0-1.33-.18-1.87-.51zm3.63-4.34v-.14c0-.93-.56-1.54-1.46-1.54-.93 0-1.51.55-1.51 1.49v.13c0 .96.63 1.48 1.48 1.48.88 0 1.49-.63 1.49-1.42zm2.517 4.35v-1.15h1.14v1.15h-1.14zm0-4.46v-1.15h1.14v1.15h-1.14zm7.628.68v1.12c0 2.04-.82 3.16-2.55 3.16-1.71 0-2.55-1.14-2.55-3.16v-1.12c0-2.02.87-3.15 2.55-3.15 1.7 0 2.55 1.13 2.55 3.15zm-1.01 1.13v-1.14c0-1.76-.66-2.22-1.54-2.22-.84 0-1.54.47-1.54 2.22v1.14c0 1.77.7 2.23 1.54 2.23.88 0 1.54-.45 1.54-2.23zm6.797-1.13v1.12c0 2.04-.82 3.16-2.55 3.16-1.71 0-2.55-1.14-2.55-3.16v-1.12c0-2.02.87-3.15 2.55-3.15 1.7 0 2.55 1.13 2.55 3.15zm-1.01 1.13v-1.14c0-1.76-.66-2.22-1.54-2.22-.84 0-1.54.47-1.54 2.22v1.14c0 1.77.7 2.23 1.54 2.23.88 0 1.54-.45 1.54-2.23zM235.002 37.04l-.71-.52c.42-.6 1.02-1.08 2.1-1.08 1.33 0 2.18.72 2.18 1.8v.1c0 .57-.24 1.31-1.13 1.63.97.17 1.46.83 1.46 1.66v.15c0 1.06-.75 2.09-2.52 2.09-.84 0-1.63-.26-2.31-.8l.49-.79c.7.51 1.2.69 1.82.69 1.05 0 1.53-.53 1.53-1.18v-.13c0-.95-.65-1.23-1.49-1.23h-.89v-.86h.85c.9 0 1.21-.6 1.21-1.22v-.08c0-.63-.54-.95-1.19-.95-.59 0-1.01.21-1.4.72zm9.928 1.55v1.12c0 2.04-.82 3.16-2.55 3.16-1.71 0-2.55-1.14-2.55-3.16v-1.12c0-2.02.87-3.15 2.55-3.15 1.7 0 2.55 1.13 2.55 3.15zm-1.01 1.13v-1.14c0-1.76-.66-2.22-1.54-2.22-.84 0-1.54.47-1.54 2.22v1.14c0 1.77.7 2.23 1.54 2.23.88 0 1.54-.45 1.54-2.23zm9.488-.55v3.59h-.97v-3.28c0-.95-.34-1.41-1.03-1.41-.61 0-1.27.39-1.27 1.28v3.41h-.97v-3.28c0-.95-.34-1.41-1.03-1.41-.6 0-1.27.37-1.27 1.23v3.46h-.97v-5.47h.96v.74h.01c.21-.48.7-.84 1.46-.84.73 0 1.29.33 1.57.91.35-.53.84-.91 1.7-.91 1.12 0 1.81.72 1.81 1.98zm1.197-1.88h.97v5.47h-.97v-5.47zm-.03-1.96h1.03v1.06h-1.03v-1.06zm6.788 3.81v3.62h-.97v-3.4c0-.92-.38-1.31-1.19-1.31-.66 0-1.38.46-1.38 1.32v3.39h-.97v-5.47h.94v.69h.01c.33-.51.89-.79 1.64-.79 1.06 0 1.92.63 1.92 1.95z" opacity=".8"/>
        <g opacity=".8" transform="translate(236.875 .625)">
            <rect width="25.5" height="15.5" x=".063" y=".063" fill="#4F32EF" rx="7.75"/>
            <use fill="#000" filter="url(#a)" xlink:href="#b"/>
            <circle cx="17.875" cy="7.813" r="7.25" fill="#FFF" stroke="#000" stroke-opacity=".1" stroke-width=".5"/>
        </g>
    </g>
</svg>
