<svg xmlns="http://www.w3.org/2000/svg" xmlns:xlink="http://www.w3.org/1999/xlink" width="315" height="76" viewBox="0 0 315 76">
    <defs>
        <rect id="a" width="315" height="75.6" rx="1.251"/>
    </defs>
    <g fill="none" fill-rule="evenodd">
        <mask id="b" fill="#fff">
            <use xlink:href="#a"/>
        </mask>
        <use fill="#FFF" xlink:href="#a"/>
        <path fill="#000" fill-rule="nonzero" d="M122.305 12.552h1.976c1.686 0 2.465.866 2.465 2.433v.811c0 1.567-.685 2.434-2.449 2.434h-1.992v-5.678zm1 .85v3.977h.843c1.015 0 1.582-.425 1.582-1.622v-.732c0-1.197-.535-1.623-1.582-1.623h-.843zm6.66-.85l2.133 5.678h-1.094l-.552-1.56h-1.913l-.56 1.56h-1.031l2.11-5.678h.906zm-.749 2.118l-.386 1.158h1.331l-.386-1.158a13.385 13.385 0 0 1-.283-.874c-.087.315-.134.473-.276.874zm3.54 3.56v-5.678h1.009v5.678h-1.008zm2.163-5.678h1.008v4.827h2.591v.85h-3.599v-5.677zm7.927 0l-1.945 3.433v2.245h-1.008v-2.245l-1.945-3.433h1.126l1.347 2.504 1.323-2.504h1.102zm4.987 0l2.134 5.678h-1.094l-.552-1.56h-1.913l-.56 1.56h-1.031l2.11-5.678h.906zm-.748 2.118l-.386 1.158h1.331l-.386-1.158a13.385 13.385 0 0 1-.283-.874c-.087.315-.134.473-.276.874zm5.58-2.205c.804 0 1.378.166 1.953.63l-.543.772c-.465-.394-.898-.473-1.41-.473-.677 0-1.354.34-1.354 1.749v.582c0 1.205.638 1.654 1.346 1.654.528 0 1.11-.126 1.56-.59l.535.771c-.677.662-1.504.756-2.134.756-1.236 0-2.323-.693-2.323-2.386v-1.016c0-1.7 1.055-2.449 2.37-2.449zm2.336.087h4.34v.85h-1.662v4.828h-1.008v-4.828H155v-.85zm4.935 5.678v-5.678h1.008v5.678h-1.008zm3.832 0l-2.087-5.678h1.079l1.488 4.441 1.544-4.441h1.024l-2.142 5.678h-.906zm3.777-5.678h3.654v.835h-2.654v1.527h2.488v.82h-2.488v1.661h2.709v.835h-3.71v-5.678zm8.617 4.85c.827 0 1.197-.377 1.197-1.495v-3.355h1.008v3.339c0 1.858-.78 2.425-2.205 2.425-1.418 0-2.205-.567-2.205-2.425v-3.34h1.008v3.356c0 1.118.37 1.496 1.197 1.496zm5.092.009c.717 0 1.032-.292 1.032-.678v-.086c0-.457-.355-.654-1-.795-.945-.205-2.009-.37-2.009-1.686v-.102c0-.685.497-1.599 2.032-1.599.622 0 1.197.103 1.772.473l-.472.78c-.457-.3-.827-.355-1.284-.355-.717 0-1.047.378-1.047.685v.095c0 .55.559.63 1.228.78 1.339.299 1.788.85 1.788 1.63v.102c0 1.268-.985 1.661-2.087 1.661-.82 0-1.591-.291-2.032-.653l.488-.803c.347.29.914.55 1.591.55zm2.974-4.86h3.654v.836h-2.654v1.527h2.488v.82h-2.488v1.661h2.709v.835h-3.71v-5.678zm7.785 5.679l-.953-2.276h-1.157v2.276h-1.008v-5.678h2.15c1.18 0 1.834.654 1.834 1.56v.29c0 .591-.299 1.103-.882 1.363.378.827.733 1.638 1.11 2.465h-1.094zm-1.095-4.835h-1.015v1.716h.929c.78 0 1.047-.299 1.047-.732v-.236c0-.441-.268-.748-.96-.748z" mask="url(#b)" opacity=".6"/>
        <path fill="#000" fill-rule="nonzero" d="M105.4 54.797l9.423-11.034c2.767-3.258 3.222-4.554 3.222-5.885v-.28c0-2.522-1.751-4.098-4.799-4.098-2.206 0-4.203.875-5.85 3.818l-1.96-1.226c1.19-2.172 3.537-4.834 7.74-4.834 4.484 0 7.356 2.522 7.356 6.305v.35c0 2.732-2.031 5.01-4.203 7.531l-7.846 9.212h12.96v2.242H105.4v-2.101zm35.847-21.823l-1.156 1.997c-1.576-.91-3.433-1.506-5.36-1.506-4.728 0-6.444 3.958-6.83 10.648.77-1.506 2.837-3.538 6.375-3.538 4.309 0 8.022 2.873 8.022 7.811v.841c0 4.974-3.573 8.057-8.267 8.057-4.764 0-8.547-3.223-8.547-10.264v-.84c0-10.859 3.538-14.922 9.283-14.922 2.276 0 4.588.665 6.48 1.716zm-13.1 15.307v.456c0 3.783 2.381 6.34 5.814 6.34 3.433 0 5.92-2.172 5.92-5.955v-.525c0-3.783-2.803-5.885-5.885-5.885-2.942 0-5.85 2.347-5.85 5.57zm17.141 13.836l1.471-7.88h3.083l-2.522 7.88h-2.032zm11.958-24.449v.42c0 2.732 1.926 4.94 4.939 4.94 3.012 0 4.939-2.208 4.939-4.94v-.42c0-2.592-1.962-4.238-4.94-4.238-3.012 0-4.938 1.646-4.938 4.238zm-.7 12.33v.42c0 2.592 2.136 4.659 5.639 4.659 3.537 0 5.64-2.067 5.64-4.659v-.42c0-2.978-2.313-4.974-5.64-4.974-3.258 0-5.64 1.926-5.64 4.974zm-2.488.49v-.595c0-2.768 1.892-5.08 4.624-5.92-2.417-1.12-3.818-3.223-3.818-5.85v-.56c0-3.608 3.082-6.305 7.32-6.305 4.239 0 7.321 2.697 7.321 6.305v.56c0 2.627-1.4 4.73-3.853 5.85 2.733.806 4.66 3.152 4.66 5.92v.595c0 4.028-3.258 6.796-8.127 6.796-4.87 0-8.127-2.768-8.127-6.796zm37.178-8.196v3.923c0 7.145-2.557 11.069-8.617 11.069-5.99 0-8.547-3.994-8.547-11.07v-3.922c0-7.076 2.662-11.034 8.547-11.034 5.955 0 8.617 3.958 8.617 11.034zm-2.522 3.958v-3.993c0-6.235-2.067-8.792-6.095-8.792-3.888 0-6.025 2.592-6.025 8.792v3.993c0 6.27 2.137 8.827 6.025 8.827 4.028 0 6.095-2.522 6.095-8.827zm6.913 9.317l1.016-2.066c1.577.91 3.433 1.54 5.43 1.54 5.184 0 6.62-3.992 6.83-10.543-.7 1.472-2.837 3.643-6.375 3.643-4.308 0-8.021-2.942-8.021-7.881v-.84c0-4.975 3.572-8.162 8.266-8.162s8.547 3.257 8.547 10.298v1.05c0 11.14-3.048 14.678-9.317 14.678-2.277 0-4.484-.631-6.376-1.717zm13.03-15.202v-.455c0-3.783-2.381-6.445-5.814-6.445-3.433 0-5.92 2.276-5.92 6.06v.525c0 3.783 2.803 5.955 5.885 5.955 2.942 0 5.85-2.417 5.85-5.64z" mask="url(#b)" opacity=".8"/>
    </g>
</svg>
