<svg xmlns="http://www.w3.org/2000/svg" width="300" height="145" viewBox="0 0 300 145">
    <defs>
        <linearGradient id="a" x1="50%" x2="50%" y1="100%" y2="0%">
            <stop offset="0%" stop-color="#FFEF00" stop-opacity="0"/>
            <stop offset="100%" stop-color="#FFDB00"/>
        </linearGradient>
        <linearGradient id="b" x1="50%" x2="50%" y1="100%" y2="0%">
            <stop offset="0%" stop-color="#F11900" stop-opacity="0"/>
            <stop offset="100%" stop-color="#F84A00"/>
        </linearGradient>
    </defs>
    <g fill="none" fill-rule="evenodd">
        <path fill="#E9E9E9" d="M0 22.5h300v1.875H0z"/>
        <path fill="#E9E9E9" d="M37.5 22.5h1.875v5.625H37.5zM260.625 22.5h1.875v5.625h-1.875zM195 22.5h1.875v5.625H195zM148.75 22.5h1.875v5.625h-1.875zM37.5 55h1.875v5.625H37.5zM260.625 55h1.875v5.625h-1.875zM195 55h1.875v5.625H195zM148.75 55h1.875v5.625h-1.875zM37.5 87.5h1.875v5.625H37.5zM260.625 87.5h1.875v5.625h-1.875zM195 87.5h1.875v5.625H195zM148.75 87.5h1.875v5.625h-1.875zM37.5 120h1.875v5.625H37.5zM260.625 120h1.875v5.625h-1.875zM195 120h1.875v5.625H195zM148.75 120h1.875v5.625h-1.875z"/>
        <path fill="#E9E9E9" d="M0 55h300v1.875H0zM0 87.5h300v1.875H0zM0 120h300v1.875H0z"/>
        <path fill="#444" fill-rule="nonzero" d="M38.209 70.919h2.196c1.873 0 2.739.962 2.739 2.704v.9c0 1.742-.761 2.705-2.721 2.705h-2.214v-6.31zm1.111.945v4.418h.936c1.129 0 1.759-.472 1.759-1.802v-.814c0-1.33-.595-1.802-1.759-1.802h-.936zm5.014 5.364v-6.31h1.12v6.31h-1.12zm4.576-.91c.796 0 1.146-.324 1.146-.753v-.096c0-.508-.393-.726-1.111-.884-1.05-.227-2.231-.411-2.231-1.872v-.114c0-.761.551-1.776 2.257-1.776.692 0 1.33.113 1.969.525l-.525.866c-.508-.333-.919-.394-1.426-.394-.796 0-1.164.42-1.164.761v.105c0 .613.621.7 1.365.866 1.488.333 1.986.945 1.986 1.812v.114c0 1.408-1.093 1.846-2.319 1.846-.91 0-1.767-.324-2.257-.727l.542-.892c.386.324 1.015.612 1.768.612zm8.339-5.4l-2.442 2.783 2.573 3.527h-1.418l-1.907-2.713-.586.639v2.074h-1.12v-6.31h1.12v2.888l2.485-2.887h1.295zM40.248 108.817c.796 0 1.146-.323 1.146-.752v-.096c0-.508-.394-.726-1.111-.884-1.05-.227-2.232-.411-2.232-1.872v-.114c0-.761.551-1.776 2.258-1.776.691 0 1.33.113 1.969.525l-.526.866c-.507-.333-.918-.394-1.426-.394-.796 0-1.163.42-1.163.761v.105c0 .613.62.7 1.365.866 1.487.333 1.986.945 1.986 1.812v.114c0 1.408-1.094 1.846-2.319 1.846-.91 0-1.767-.324-2.258-.727l.543-.892c.385.324 1.015.612 1.768.612zm4.68.91l-1.714-6.308h1.163l1.155 4.681 1.278-4.681h1.076l1.269 4.672 1.199-4.672h1.076l-1.741 6.309H48.62l-1.277-4.857-1.33 4.857h-1.085zm10.238-6.308l2.372 6.309H56.32l-.612-1.733h-2.127l-.62 1.733h-1.147l2.345-6.31h1.006zm-.831 2.353l-.429 1.287h1.479l-.429-1.287c-.149-.42-.227-.665-.315-.97-.096.35-.148.524-.306.97zm4.069 3.956v-6.31h2.38c1.514 0 2.161.77 2.161 1.803v.184c0 1.024-.7 1.899-2.161 1.899h-1.26v2.424h-1.12zm2.327-5.373h-1.207v2.004h1.111c.735 0 1.181-.236 1.181-.971v-.158c0-.691-.446-.875-1.085-.875z"/>
        <path fill="#999" fill-rule="nonzero" d="M40.45 132.442v.84c0 1.53-.615 2.37-1.913 2.37-1.282 0-1.912-.854-1.912-2.37v-.84c0-1.514.653-2.362 1.913-2.362 1.275 0 1.912.847 1.912 2.362zm-.758.848v-.855c0-1.32-.495-1.665-1.154-1.665-.63 0-1.155.352-1.155 1.665v.855c0 1.328.524 1.673 1.154 1.673.66 0 1.156-.338 1.156-1.673zM257.563 135.57h-.743v-4.537l-1.267.75-.353-.6 1.74-1.02h.623v5.407zm5.587-3.127v.84c0 1.53-.615 2.37-1.912 2.37-1.283 0-1.913-.855-1.913-2.37v-.84c0-1.516.653-2.363 1.913-2.363 1.274 0 1.912.847 1.912 2.362zm-.757.847v-.855c0-1.32-.495-1.665-1.155-1.665-.63 0-1.156.352-1.156 1.665v.855c0 1.328.526 1.673 1.156 1.673.66 0 1.154-.338 1.154-1.673zm5.332-.847v.84c0 1.53-.615 2.37-1.913 2.37-1.282 0-1.912-.855-1.912-2.37v-.84c0-1.516.653-2.363 1.913-2.363 1.274 0 1.912.847 1.912 2.362zm-.758.847v-.855c0-1.32-.494-1.665-1.154-1.665-.63 0-1.155.352-1.155 1.665v.855c0 1.328.524 1.673 1.154 1.673.66 0 1.155-.338 1.155-1.673z"/>
        <path fill="#FFA700" fill-rule="nonzero" d="M193.002 130.898l-2.07 4.672h-1.012l2.078-4.597h-2.858v-.81h3.863v.734zm4.71 1.544v.84c0 1.53-.66 2.37-1.957 2.37-1.282 0-2.017-.854-2.017-2.37v-.84c0-1.514.734-2.362 1.994-2.362 1.275 0 1.98.847 1.98 2.362zm-.967.848v-.855c0-1.238-.488-1.447-1.013-1.447-.494 0-1.027.217-1.027 1.447v.855c0 1.245.555 1.455 1.05 1.455.525 0 .99-.203.99-1.455z"/>
        <path fill="#E9E9E9" d="M238.75 22.5h1.875v5.625h-1.875zM238.75 55h1.875v5.625h-1.875zM238.75 87.5h1.875v5.625h-1.875zM238.75 120h1.875v5.625h-1.875z"/>
        <path fill="#E94432" fill-rule="nonzero" d="M233.13 135.278l.352-.796c.338.196.706.3 1.148.3.697 0 1.08-.36 1.132-1.514-.262.307-.75.472-1.214.472-1.05 0-1.688-.683-1.688-1.733v-.15c0-1.005.72-1.777 1.92-1.777 1.38 0 1.935.9 1.935 2.287v.346c0 2.385-.863 2.94-2.145 2.94-.487 0-1.035-.105-1.44-.375zm2.618-3.285v-.113c0-.585-.33-.93-.945-.93-.66 0-.998.338-.998.938v.082c0 .63.3.93.96.93.69 0 .983-.412.983-.907zm5.715.45v.84c0 1.53-.66 2.37-1.958 2.37-1.282 0-2.017-.855-2.017-2.37v-.84c0-1.516.734-2.363 1.994-2.363 1.275 0 1.98.847 1.98 2.362zm-.968.847v-.855c0-1.238-.488-1.447-1.013-1.447-.494 0-1.027.217-1.027 1.447v.855c0 1.245.555 1.455 1.05 1.455.525 0 .99-.203.99-1.455z"/>
        <path fill="#444" fill-rule="nonzero" d="M40.877 43.678l-1.303-3.325c-.088-.22-.175-.5-.324-.954v5.328h-1.041V38.42H39.8l1.549 3.92 1.487-3.92h1.61v6.309H43.39v-5.33c-.132.526-.219.727-.298.954l-1.321 3.326h-.893zm4.988-5.26h4.06v.928h-2.949v1.698h2.765v.91h-2.765V43.8h3.01v.928h-4.121v-6.31zm7.989 5.26l-1.304-3.325c-.087-.22-.175-.5-.324-.954v5.328h-1.041V38.42h1.593l1.548 3.92 1.488-3.92h1.61v6.309h-1.059v-5.33c-.131.526-.219.727-.297.954l-1.322 3.326h-.892zm7.428-5.355c1.436 0 2.67.778 2.67 2.73v1.04c0 1.987-1.217 2.73-2.67 2.73-1.452 0-2.668-.743-2.668-2.73v-1.04c0-1.952 1.242-2.73 2.669-2.73zm0 5.477c.858 0 1.54-.394 1.54-1.846v-.761c0-1.453-.682-1.847-1.54-1.847-.84 0-1.54.394-1.54 1.847v.76c0 1.453.7 1.847 1.54 1.847zm7.324.928l-1.058-2.53H66.26v2.53h-1.12v-6.31h2.389c1.313 0 2.039.727 2.039 1.733v.324c0 .656-.333 1.225-.98 1.514.42.919.814 1.82 1.234 2.739h-1.217zm-1.216-5.373h-1.129v1.908h1.033c.866 0 1.163-.333 1.163-.814v-.263c0-.49-.297-.831-1.067-.831zm8.374-.936l-2.161 3.815v2.493h-1.12v-2.493l-2.162-3.815h1.252l1.496 2.782 1.47-2.782h1.225zM40.615 5.822c.892 0 1.531.184 2.17.7l-.604.858c-.516-.438-.997-.525-1.566-.525-.753 0-1.505.376-1.505 1.942v.648c0 1.339.709 1.838 1.496 1.838.587 0 1.234-.14 1.733-.657l.595.858c-.753.735-1.671.84-2.371.84-1.374 0-2.582-.77-2.582-2.652V8.544c0-1.89 1.173-2.722 2.634-2.722zm3.351 6.405V5.92h2.38c1.514 0 2.162.77 2.162 1.802v.184c0 1.024-.7 1.899-2.162 1.899h-1.26v2.423h-1.12zm2.328-5.372h-1.208v2.004h1.111c.735 0 1.182-.236 1.182-.971V7.73c0-.691-.447-.875-1.085-.875zm5.574 4.454c.918 0 1.33-.42 1.33-1.663V5.92h1.12v3.71c0 2.065-.867 2.695-2.45 2.695-1.576 0-2.45-.63-2.45-2.695v-3.71h1.12v3.727c0 1.243.41 1.663 1.33 1.663z"/>
        <path fill="url(#a)" d="M195 22.5h45.625v103.125H195z" style="mix-blend-mode:multiply"/>
        <path fill="url(#b)" d="M240.625 22.5H262.5v103.125h-21.875z" style="mix-blend-mode:multiply"/>
        <g transform="translate(123.096)">
            <g transform="translate(29.077)">
                <rect width="33.125" height="16.875" x=".639" y=".313" fill="#FFF" stroke="#D7D7D7" stroke-width=".625" rx="1.875"/>
                <path fill="#444" d="M26.264 10.625l2.188-2.5h-4.375z"/>
                <path fill="#444" fill-rule="nonzero" d="M9.764 11.195h-.742V6.657l-1.268.75-.352-.6 1.74-1.02h.622v5.408zm7.058-5.88v2.753h-4.523V5.323h.735v.81h3.053v-.818h.735zm-1.793 5.28h-.75V9.312h-2.887v-.63h6.345v.63h-2.708v1.283zm-1.98-.585v1.32h3.908v.645h-4.65V10.01h.742zm-.015-3.277v.712h3.053v-.713h-3.053z"/>
            </g>
            <g transform="translate(106.25)">
                <rect width="33.125" height="16.875" x=".313" y=".313" fill="#FFF" stroke="#D7D7D7" stroke-width=".625" rx="1.875"/>
                <path fill="#444" d="M25.938 10.625l2.187-2.5H23.75z"/>
                <path fill="#444" fill-rule="nonzero" d="M9.438 11.195h-.743V6.657l-1.268.75-.352-.6 1.74-1.02h.623v5.408zm7.057-5.88v2.753h-4.523V5.323h.736v.81h3.052v-.818h.735zm-1.793 5.28h-.75V9.312h-2.887v-.63h6.345v.63h-2.707v1.283zm-1.98-.585v1.32h3.908v.645h-4.65V10.01h.742zm-.014-3.277v.712h3.052v-.713h-3.053z"/>
            </g>
            <path fill="#444" fill-rule="nonzero" d="M11.8 10.925v-.3c0-.727.795-1.32 2.122-1.32 1.328 0 2.123.593 2.123 1.32v.3c0 .727-.795 1.32-2.123 1.32-1.327 0-2.122-.592-2.122-1.32zm1.155-4.328v-.405H10.75v-.63h2.932V6.65c0 1.147-.562 1.567-2.925 2.572l-.292-.592c2.085-.87 2.49-1.238 2.49-2.033zm3.06 2.618h-.728V8.21h-1.335v-.638h1.335V6.77h-1.222v-.637h1.223v-.998h.727v4.08zm-.697 1.665v-.21c0-.367-.54-.758-1.396-.758-.854 0-1.395.39-1.395.758v.21c0 .367.54.757 1.396.757.854 0 1.395-.39 1.395-.757zm4.784-.383h3.308v.63h-6.345v-.63h2.295V7.986h.742v2.513zm-2.257-4.74h4.635v.908c0 1.343-.082 2.093-.255 3.03l-.742-.09c.18-.945.255-1.748.255-2.678v-.524h-3.893v-.645z"/>
            <circle cx="3.125" cy="8.75" r="3.125" fill="#F8D505"/>
            <circle cx="79.375" cy="8.75" r="3.125" fill="#F14904"/>
            <path fill="#444" fill-rule="nonzero" d="M88.815 8.27c-1.102 0-1.8-.637-1.8-1.35v-.3c0-.713.683-1.35 1.8-1.35 1.118 0 1.8.638 1.8 1.35v.3c0 .713-.697 1.35-1.8 1.35zm3.487 3.78h-.735V5.135h.736v6.915zm-3.075-.21h-.757V9.477c-.547.015-1.155.015-1.83.015v-.645c1.98.008 3.248-.037 4.492-.157l.06.623a29.44 29.44 0 0 1-1.964.142v2.385zm-.412-4.215c.638 0 1.088-.322 1.088-.758v-.194c0-.458-.45-.758-1.088-.758-.638 0-1.087.3-1.087.758v.194c0 .436.45.758 1.087.758zm5.963 2.04h4.312v2.378h-4.313V9.665zm.607-.45c-1.193 0-1.613-.63-1.613-1.133v-.21c0-.51.42-1.132 1.613-1.132 1.192 0 1.612.63 1.612 1.132v.21c0 .503-.42 1.133-1.612 1.133zm3.705.113h-.735v-1.44h-1.013V7.25h1.013V5.135h.735v4.193zm-3.578.967v1.117h2.843v-1.117h-2.843zm1.883-4.433v.623h-3.998v-.623h1.613v-.817h.735v.817h1.65zm-2.01 2.76c.69 0 .907-.345.907-.585v-.12c0-.24-.21-.585-.907-.585-.698 0-.907.346-.907.586v.12c0 .24.217.585.907.585z"/>
        </g>
    </g>
</svg>
