<?xml version="1.0" encoding="UTF-8"?>
<svg width="80px" height="80px" viewBox="0 0 80 80" version="1.1" xmlns="http://www.w3.org/2000/svg" xmlns:xlink="http://www.w3.org/1999/xlink">
    <!-- Generator: Sketch 54.1 (76490) - https://sketchapp.com -->
    <title>tm_img_simple02</title>
    <desc>Created with Sketch.</desc>
    <defs>
        <polygon id="path-1" points="6.3 5.6 42.7 5.6 42.7 10.2666667 42.7 33.6 6.3 33.6"></polygon>
        <polyline id="path-2" points="49 39.2 12.6 39.2 12.6 11.2 49 11.2 49 15.8666667 49 34.7435435"></polyline>
        <circle id="path-3" cx="9.1" cy="9.1" r="9.1"></circle>
    </defs>
    <g id="Page-1" stroke="none" stroke-width="1" fill="none" fill-rule="evenodd">
        <g id="guide_mobile" transform="translate(-167.000000, -4127.000000)">
            <g id="tm_img_simple02" transform="translate(167.000000, 4127.000000)">
                <g id="Group-23" transform="translate(10.500000, 14.300000)">
                    <path d="M4.4,0.9 L4.4,2.9 L2.4,2.9 L2.4,0.9 L4.4,0.9 Z M9.4,0.9 L9.4,2.9 L7.4,2.9 L7.4,0.9 L9.4,0.9 Z M14.4,0.9 L14.4,2.9 L12.4,2.9 L12.4,0.9 L14.4,0.9 Z M19.4,0.9 L19.4,2.9 L17.4,2.9 L17.4,0.9 L19.4,0.9 Z M24.4,0.9 L24.4,2.9 L22.4,2.9 L22.4,0.9 L24.4,0.9 Z M29.4,0.9 L29.4,2.9 L27.4,2.9 L27.4,0.9 L29.4,0.9 Z M34.4,0.9 L34.4,2.9 L32.4,2.9 L32.4,0.9 L34.4,0.9 Z M39.4,0.9 L39.4,2.9 L37.4,2.9 L37.4,0.9 L39.4,0.9 Z M44.4,0.9 L44.4,2.9 L42.4,2.9 L42.4,0.9 L44.4,0.9 Z M49.4,0.9 L49.4,2.9 L47.4,2.9 L47.4,0.9 L49.4,0.9 Z M54.4,0.9 L54.4,2.9 L52.4,2.9 L52.4,0.9 L54.4,0.9 Z M57.4,4.9 L55.4,4.9 L55.4,2.9 L57.4,2.9 L57.4,4.9 Z M55.4,9.9 L55.4,7.9 L57.4,7.9 L57.4,9.9 L55.4,9.9 Z M57.4,14.9 L55.4,14.9 L55.4,12.9 L57.4,12.9 L57.4,14.9 Z M57.4,19.9 L55.4,19.9 L55.4,17.9 L57.4,17.9 L57.4,19.9 Z M57.4,24.9 L55.4,24.9 L55.4,22.9 L57.4,22.9 L57.4,24.9 Z M57.4,29.9 L55.4,29.9 L55.4,27.9 L57.4,27.9 L57.4,29.9 Z M57.4,34.9 L55.4,34.9 L55.4,32.9 L57.4,32.9 L57.4,34.9 Z M57.4,39.9 L55.4,39.9 L55.4,37.9 L57.4,37.9 L57.4,39.9 Z M57.4,44.9 L55.4,44.9 L55.4,42.9 L57.4,42.9 L57.4,44.9 Z M55.4,50.9 L55.4,48.9 L56.4,48.9 L55.4,49.9 L55.4,47.9 L57.4,47.9 L57.4,49.9 L57.4,50.9 L56.4,50.9 L55.4,50.9 Z M51.4,50.9 L51.4,48.9 L53.4,48.9 L53.4,50.9 L51.4,50.9 Z M46.4,50.9 L46.4,48.9 L48.4,48.9 L48.4,50.9 L46.4,50.9 Z M41.4,50.9 L41.4,48.9 L43.4,48.9 L43.4,50.9 L41.4,50.9 Z M36.4,50.9 L36.4,48.9 L38.4,48.9 L38.4,50.9 L36.4,50.9 Z M31.4,50.9 L31.4,48.9 L33.4,48.9 L33.4,50.9 L31.4,50.9 Z M26.4,50.9 L26.4,48.9 L28.4,48.9 L28.4,50.9 L26.4,50.9 Z M21.4,50.9 L21.4,48.9 L23.4,48.9 L23.4,50.9 L21.4,50.9 Z M16.4,50.9 L16.4,48.9 L18.4,48.9 L18.4,50.9 L16.4,50.9 Z M11.4,50.9 L11.4,48.9 L13.4,48.9 L13.4,50.9 L11.4,50.9 Z M6.4,50.9 L6.4,48.9 L8.4,48.9 L8.4,50.9 L6.4,50.9 Z M1.4,48.9 L3.4,48.9 L3.4,49.9 L2.4,48.9 L3.4,48.9 L3.4,50.9 L2.4,50.9 L1.4,50.9 L1.4,49.9 L1.4,48.9 Z M1.4,43.9 L3.4,43.9 L3.4,45.9 L1.4,45.9 L1.4,43.9 Z M1.4,38.9 L3.4,38.9 L3.4,40.9 L1.4,40.9 L1.4,38.9 Z M1.4,33.9 L3.4,33.9 L3.4,35.9 L1.4,35.9 L1.4,33.9 Z M1.4,28.9 L3.4,28.9 L3.4,30.9 L1.4,30.9 L1.4,28.9 Z M1.4,23.9 L3.4,23.9 L3.4,25.9 L1.4,25.9 L1.4,23.9 Z M1.4,18.9 L3.4,18.9 L3.4,20.9 L1.4,20.9 L1.4,18.9 Z M1.4,13.9 L3.4,13.9 L3.4,15.9 L1.4,15.9 L1.4,13.9 Z M1.4,8.9 L3.4,8.9 L3.4,10.9 L1.4,10.9 L1.4,8.9 Z M1.4,3.9 L3.4,3.9 L3.4,5.9 L1.4,5.9 L1.4,3.9 Z" id="Rectangle" fill="#4F32EF" fill-rule="nonzero"></path>
                    <polygon id="Rectangle" stroke="#4F32EF" stroke-width="2" fill="#FFFFFF" points="0 0 36.4 0 36.4 4.66666667 36.4 28 0 28"></polygon>
                    <g id="Rectangle">
                        <use fill="#FFFFFF" fill-rule="evenodd" xlink:href="#path-1"></use>
                        <path stroke="#FFFFFF" stroke-width="3" d="M4.8,4.1 L44.2,4.1 L44.2,35.1 L4.8,35.1 L4.8,4.1 Z"></path>
                        <use stroke="#4F32EF" stroke-width="2" xlink:href="#path-1"></use>
                    </g>
                    <g id="Path">
                        <use fill="#FFFFFF" fill-rule="evenodd" xlink:href="#path-2"></use>
                        <path stroke="#FFFFFF" stroke-width="3" d="M50.5,40.7 L11.1,40.7 L11.1,9.7 L50.5,9.7 L50.5,40.7 Z"></path>
                        <use stroke="#4F32EF" stroke-width="2" xlink:href="#path-2"></use>
                    </g>
                    <path d="M24.85,22.4 C21.9505051,22.4 19.6,24.7505051 19.6,27.65 C19.6,30.5494949 21.9505051,32.9 24.85,32.9 C27.7494949,32.9 30.1,30.5494949 30.1,27.65 L24.85,27.65 L24.85,22.4 Z" id="Path" fill="#4F32EF"></path>
                    <rect id="Rectangle" fill="#4F32EF" x="34.3" y="23.8" width="8.4" height="1.4"></rect>
                    <rect id="Rectangle-Copy-26" fill="#4F32EF" x="34.3" y="27.3" width="8.4" height="1.4"></rect>
                    <rect id="Rectangle-Copy-26" fill="#4F32EF" x="34.3" y="30.8" width="8.4" height="1.4"></rect>
                    <rect id="Rectangle" stroke="#4F32EF" stroke-width="2" fill="#FFFFFF" x="12.6" y="11.2" width="36.4" height="5.6"></rect>
                    <g id="Group-21" transform="translate(42.700000, 33.600000)">
                        <g id="Oval">
                            <use fill="#FFFFFF" fill-rule="evenodd" xlink:href="#path-3"></use>
                            <circle stroke="#FFFFFF" stroke-width="3" cx="9.1" cy="9.1" r="10.6"></circle>
                            <use stroke="#4F32EF" stroke-width="2" xlink:href="#path-3"></use>
                        </g>
                        <g id="Group-20" transform="translate(8.746447, 9.453553) rotate(-315.000000) translate(-8.746447, -9.453553) translate(5.246447, 5.453553)" fill="#4F32EF">
                            <rect id="Rectangle" x="0" y="2.8" width="7" height="2"></rect>
                            <rect id="Rectangle" transform="translate(3.500000, 3.800000) rotate(-270.000000) translate(-3.500000, -3.800000) " x="0" y="2.8" width="7" height="2"></rect>
                        </g>
                    </g>
                </g>
            </g>
        </g>
    </g>
</svg>