<svg xmlns="http://www.w3.org/2000/svg" xmlns:xlink="http://www.w3.org/1999/xlink" width="80" height="80" viewBox="0 0 80 80">
    <defs>
        <path id="a" d="M23.8 42.7l23.8 10.5-23.8 10.5L0 53.2z"/>
        <path id="b" d="M23.8 33.6l23.8 10.5-23.8 10.5L0 44.1z"/>
        <path id="c" d="M23.8 25.2l23.8 10.5-23.8 10.5L0 35.7z"/>
        <path id="d" d="M13.277 29.332C5.827 28.616 0 22.339 0 14.7 0 6.581 6.581 0 14.7 0s14.7 6.581 14.7 14.7c0 7.639-5.826 13.916-13.277 14.632L14.7 33.6l-1.423-4.268z"/>
    </defs>
    <g fill="none" fill-rule="evenodd">
        <g transform="translate(17.2 10.6)">
            <use fill="#FFF" xlink:href="#a"/>
            <path stroke="#FFF" stroke-width="3" d="M23.8 41.06L51.316 53.2 23.8 65.34-3.716 53.2 23.8 41.06z"/>
            <use stroke="#4F32EF" stroke-width="2" xlink:href="#a"/>
        </g>
        <g transform="translate(17.2 10.6)">
            <use fill="#FFF" xlink:href="#b"/>
            <path stroke="#FFF" stroke-width="3" d="M23.8 31.96L51.316 44.1 23.8 56.24-3.716 44.1 23.8 31.96z"/>
            <use stroke="#4F32EF" stroke-width="2" xlink:href="#b"/>
        </g>
        <g transform="translate(17.2 10.6)">
            <use fill="#FFF" xlink:href="#c"/>
            <path stroke="#FFF" stroke-width="3" d="M23.8 23.56L51.316 35.7 23.8 47.84-3.716 35.7 23.8 23.56z"/>
            <use stroke="#4F32EF" stroke-width="2" xlink:href="#c"/>
        </g>
        <g transform="translate(26.3 10.6)">
            <use fill="#FFF" xlink:href="#d"/>
            <path stroke="#FFF" stroke-width="3" d="M12.152 30.7C4.367 29.473-1.5 22.73-1.5 14.7c0-8.947 7.253-16.2 16.2-16.2s16.2 7.253 16.2 16.2c0 8.03-5.867 14.772-13.652 16L14.7 38.344l-2.548-7.642z"/>
            <use stroke="#4F32EF" stroke-width="2" xlink:href="#d"/>
            <circle cx="9.1" cy="14.7" r="1.4" fill="#4F32EF"/>
            <circle cx="14.7" cy="14.7" r="1.4" fill="#4F32EF"/>
            <circle cx="20.3" cy="14.7" r="1.4" fill="#4F32EF"/>
        </g>
    </g>
</svg>
